<?xml version="1.0" encoding="UTF-8"?>
<svg version="1.1" xmlns="http://www.w3.org/2000/svg" width="2048" height="2048">
<path d="M0 0 C675.84 0 1351.68 0 2048 0 C2048 675.84 2048 1351.68 2048 2048 C1372.16 2048 696.32 2048 0 2048 C0 1372.16 0 696.32 0 0 Z " fill="#FDFDFD" transform="translate(0,0)"/>
<path d="M0 0 C162.16098765 0 162.16098765 0 183 19 C184.05175415 19.92268677 184.05175415 19.92268677 185.12475586 20.86401367 C193.55265072 28.70594417 199.44587567 38.09350145 205.6875 47.6875 C206.84714769 49.45133938 208.00780043 51.21451837 209.16943359 52.97705078 C211.97124599 57.2339171 214.75988444 61.49919865 217.54327393 65.76812744 C219.50988546 68.7812034 221.48706427 71.78721206 223.46484375 74.79296875 C231.17614034 86.53627688 238.73735296 98.37599166 246.30078125 110.21484375 C252.48834806 119.89734173 258.73103246 129.54275869 265.03125 139.15234375 C266.50011561 141.39315352 267.9688986 143.6340171 269.4375 145.875 C269.80439941 146.43473511 270.17129883 146.99447021 270.54931641 147.57116699 C275.74427138 155.50051986 280.85558439 163.4761542 285.89208984 171.50683594 C289.27201952 176.88341263 292.75150727 182.18352563 296.29174805 187.45556641 C302.98871084 197.43509298 309.45870996 207.56200874 315.89550781 217.71069336 C322.40336957 227.97132407 329.01258285 238.16021036 335.67773438 248.31933594 C340.79662196 256.13200916 345.83456662 263.99207888 350.83203125 271.8828125 C355.00174542 278.45703004 359.23658262 284.98621731 363.5 291.5 C370.14761996 301.66005433 376.67916333 311.89011356 383.18457031 322.14160156 C394.64678741 340.18889012 406.27785929 358.12069143 418 376 C425.65847532 387.68641736 433.28533859 399.38675543 440.72167969 411.21606445 C445.73888538 419.193286 450.865671 427.09785887 456 435 C463.07131702 445.89336119 470.08949821 456.81979584 477.08544922 467.76171875 C483.13328782 477.21713506 489.22163087 486.64570946 495.33691406 496.05761719 C501.65553262 505.78311131 507.89972613 515.55196572 514.078125 525.3671875 C514.53158767 526.0598128 514.98505033 526.75243811 515.4522543 527.46605206 C517 530 517 530 518.31424809 532.81154346 C520.53801928 537.17405118 522.19383975 540.3868735 526.9827404 542.01253319 C530.77463724 542.39641615 534.48663727 542.42813471 538.28881836 542.34057617 C539.7615087 542.34723592 541.23418381 542.35872558 542.70680332 542.37463093 C546.63790678 542.40383802 550.56577892 542.36727358 554.49655914 542.31671906 C558.18985108 542.27928578 561.88185924 542.30164024 565.57531738 542.31896973 C576.36278874 542.33497089 587.15023076 542.25544501 597.9375 542.1875 C634.1034375 542.0946875 634.1034375 542.0946875 671 542 C671 616.58 671 691.16 671 768 C637.71125 768.12375 637.71125 768.12375 603.75 768.25 C593.2945752 768.30462402 593.2945752 768.30462402 582.62792969 768.36035156 C574.02197266 768.37841797 574.02197266 768.37841797 569.97491455 768.3817749 C567.18816002 768.38545543 564.40171986 768.40025637 561.61505127 768.42230225 C535.0217943 768.62301216 508.82047392 767.65418184 488 749 C487.21753906 748.36964844 486.43507813 747.73929688 485.62890625 747.08984375 C473.05244705 736.59311103 464.94608914 721.96890604 456.328125 708.265625 C453.67499185 704.0511215 450.96876807 699.88080842 448.1875 695.75 C443.67316352 689.03646886 439.23681011 682.27314041 434.8125 675.5 C434.44884338 674.94343719 434.08518677 674.38687439 433.71051025 673.81344604 C429.77617884 667.79150799 425.84690868 661.76628454 421.921875 655.73828125 C420.63546595 653.76298874 419.34900881 651.78772754 418.0625 649.8125 C417.43972168 648.85609619 416.81694336 647.89969238 416.17529297 646.91430664 C412.79646737 641.73208376 409.38847967 636.57188438 405.9375 631.4375 C401.38870013 624.66241069 397.02535149 617.77376832 392.65942383 610.87988281 C387.34431247 602.50352295 381.91655759 594.20366938 376.47412109 585.90966797 C371.4504511 578.24399546 366.49008598 570.54023596 361.5625 562.8125 C357.08443093 555.79294021 352.58388398 548.79612356 347.93579102 541.88793945 C343.02141749 534.57373552 338.22481811 527.18179682 333.41430664 519.79907227 C329.33200204 513.54107885 325.21494143 507.30866023 321.06260681 501.09701538 C318.07188238 496.61900203 315.10377421 492.12655833 312.14480591 487.62750244 C309.86866623 484.1687423 307.58566238 480.71453999 305.30200195 477.26074219 C304.12700694 475.48035675 302.95487561 473.69807856 301.78540039 471.9140625 C300.07405932 469.30486413 298.35258314 466.70262261 296.62890625 464.1015625 C296.10704239 463.30070221 295.58517853 462.49984192 295.04750061 461.67471313 C294.55946457 460.94239471 294.07142853 460.21007629 293.56860352 459.45556641 C293.14354019 458.81019928 292.71847687 458.16483215 292.28053284 457.49990845 C290.9696185 455.70310652 290.9696185 455.70310652 288 455 C287.87625 454.360625 287.7525 453.72125 287.625 453.0625 C287.315625 452.0415625 287.315625 452.0415625 287 451 C286.175 450.67 285.35 450.34 284.5 450 C283.675 449.67 282.85 449.34 282 449 C281.375 446.9375 281.375 446.9375 281 445 C280.01 444.67 279.02 444.34 278 444 C277.505 444.70125 277.01 445.4025 276.5 446.125 C273.38924563 449.70236753 269.85619756 452.27632648 266 455 C266.66 453.35 267.32 451.7 268 450 C267.01 450 266.02 450 265 450 C265 449.34 265 448.68 265 448 C263.35 448 261.7 448 260 448 C261.32 446.02 262.64 444.04 264 442 C262.68 442.33 261.36 442.66 260 443 C259.67 441.68 259.34 440.36 259 439 C257.453125 439.0928125 257.453125 439.0928125 255.875 439.1875 C251.76531027 438.98864405 249.51117504 438.05532197 246 436 C246 435.34 246 434.68 246 434 C245.46375 433.896875 244.9275 433.79375 244.375 433.6875 C241.37497956 432.81907303 238.7620465 431.44379704 236 430 C235.67 430.66 235.34 431.32 235 432 C234.443125 431.484375 233.88625 430.96875 233.3125 430.4375 C231.12194805 428.74656315 231.12194805 428.74656315 228.6875 429.25 C227.800625 429.4975 226.91375 429.745 226 430 C224.824375 430.165 223.64875 430.33 222.4375 430.5 C216.46674498 431.27076812 216.46674498 431.27076812 212 435 C211.34 434.67 210.68 434.34 210 434 C209.67 434.66 209.34 435.32 209 436 C208.23429688 436.29648438 207.46859375 436.59296875 206.6796875 436.8984375 C203.75957912 438.09883191 202.29778597 439.36205694 200.125 441.625 C199.42890625 442.346875 198.7328125 443.06875 198.015625 443.8125 C196.2590785 445.71882953 194.55749994 447.65358593 192.875 449.625 C189.49534598 453.57051353 185.82557848 457.17304365 182.125 460.8125 C167.653204 474.33764427 167.653204 474.33764427 160.87284148 492.1343295 C160.87180965 492.90863696 160.87077783 493.68294443 160.86971474 494.48071575 C160.86427822 495.8271856 160.86427822 495.8271856 160.85873187 497.20085686 C160.85980012 498.18304013 160.86086837 499.1652234 160.86196899 500.1771698 C160.85914771 501.22371036 160.85632643 502.27025093 160.85341966 503.34850484 C160.8450651 506.86670272 160.84373467 510.38486917 160.84228516 513.90307617 C160.83761755 516.42105193 160.83247408 518.93902684 160.82688904 521.45700073 C160.815602 526.88572843 160.80712016 532.31444958 160.80076981 537.74318504 C160.7904378 546.32785968 160.76987214 554.91249569 160.74765015 563.49714661 C160.74017044 566.43517958 160.73275669 569.37321272 160.72536278 572.31124592 C160.72258693 573.41263701 160.72258693 573.41263701 160.719755 574.53627842 C160.69882907 582.8940549 160.68000088 591.25183565 160.66210938 599.60961914 C160.66047119 600.37358434 160.65883301 601.13754953 160.65714519 601.92466519 C160.6308733 614.29848936 160.61222236 626.6723165 160.59551747 639.04615673 C160.57808267 651.75561131 160.54922207 664.46500749 160.5106281 677.17441541 C160.48725841 685.01019499 160.47323626 692.84587936 160.47130047 700.68169407 C160.46893723 706.69120391 160.4510415 712.70056526 160.42743111 718.71003342 C160.42023824 721.17184684 160.41813707 723.63368127 160.42153358 726.09550285 C160.42543344 729.45984405 160.41095617 732.823633 160.39199829 736.18791199 C160.39752799 737.15894165 160.40305768 738.12997131 160.40875494 739.13042611 C160.32833583 747.41524653 158.82545863 755.23975229 152.96265793 761.44264698 C144.66799574 768.02439361 135.04988931 768.71314155 124.87792969 768.56762695 C123.50671948 768.56621273 122.13550551 768.56701575 120.76429749 768.56983948 C117.08090008 768.5712605 113.39833474 768.54208772 109.7151289 768.50696969 C105.85149158 768.47548371 101.9878303 768.47275809 98.12408447 768.46684265 C90.82507142 768.45136895 83.52643765 768.41042945 76.2275908 768.3600952 C67.91071682 768.3039987 59.5938237 768.27666447 51.27680731 768.25161803 C34.18431968 768.1995068 17.09220008 768.11169224 0 768 C-0.21044352 745.35574676 -0.3690481 722.71165525 -0.46630955 700.06662178 C-0.51267467 689.55156854 -0.57586177 679.03712365 -0.67895508 668.52246094 C-0.76879134 659.35552044 -0.82675483 650.18902059 -0.84679645 641.0216521 C-0.85850827 636.16940868 -0.88593895 631.31842562 -0.95157051 626.46658707 C-1.01291527 621.89436783 -1.03145433 617.32392112 -1.01796913 612.75132942 C-1.02043395 611.07837203 -1.03818931 609.40535198 -1.07284927 607.73275185 C-1.23210345 599.64716873 -1.28067114 593.47502404 4.4122467 587.10568237 C5.91756438 585.71083964 7.44374273 584.33777086 9 583 C10.45581797 581.26520886 11.89810473 579.51872617 13.3125 577.75 C19.87111405 569.6522366 26.67978035 561.76102305 33.5625 553.9375 C37.96872923 548.92314712 42.25653292 543.80753181 46.56054688 538.70556641 C48.41647052 536.50653612 50.27518692 534.30987857 52.13427734 532.11352539 C53.04626576 531.03606178 53.95804897 529.95842445 54.86962891 528.88061523 C57.18373969 526.14459702 59.50002739 523.41047226 61.8203125 520.6796875 C66.06965921 515.6747702 70.29680691 510.65816375 74.4375 505.5625 C78.85262824 500.13999847 83.40012477 494.83872545 87.9609375 489.5390625 C90.82597089 486.20834749 93.6665794 482.85761621 96.5 479.5 C100.29511286 475.00580536 104.10791025 470.52735622 107.9375 466.0625 C108.43419189 465.48330811 108.93088379 464.90411621 109.44262695 464.30737305 C111.99510418 461.33243959 114.55069982 458.3602292 117.109375 455.390625 C122.3778158 449.26977729 127.57166914 443.10491272 132.6640625 436.8359375 C136.85679505 431.74576387 141.18158777 426.76819833 145.48144531 421.76855469 C151.05744504 415.27457687 156.62595984 408.7758487 161.9375 402.0625 C165.67251891 397.347804 169.57956349 392.79588776 173.50756836 388.24243164 C176.55683607 384.7016717 179.5552621 381.12881494 182.5 377.5 C185.896159 373.31916888 189.36348748 369.20873833 192.875 365.125 C193.38562988 364.53114502 193.89625977 363.93729004 194.42236328 363.32543945 C195.45084165 362.12955325 196.4793247 360.93367107 197.5078125 359.73779297 C204.68277504 351.38187291 211.72215992 342.92049461 218.70703125 334.40527344 C224.37089619 327.51653505 230.16471598 320.74370736 236 314 C238 315 238 315 238.75854492 316.9074707 C238.99677979 317.73851318 239.23501465 318.56955566 239.48046875 319.42578125 C239.75383057 320.35753174 240.02719238 321.28928223 240.30883789 322.24926758 C240.59879639 323.26013428 240.88875488 324.27100098 241.1875 325.3125 C243.71619821 333.88238404 246.34776319 342.38243403 249.47485352 350.75537109 C250.98700936 354.84573 252.21757443 358.78192675 253.03515625 363.0703125 C254.46572986 369.98740519 254.46572986 369.98740519 258 376 C263.31568441 379.29457411 269.74371116 379.80467475 275.83056641 380.56689453 C280.41878829 381.19387848 284.93211895 382.13423724 289.46972656 383.05151367 C296.62443086 384.49262948 303.79843623 385.81552792 311 387 C310.70456299 386.1241626 310.40912598 385.2483252 310.10473633 384.34594727 C298.62807449 350.26380609 287.86286203 315.96817886 277.11517334 281.65060425 C271.19727202 262.75754963 265.20214894 243.8898531 259.1656189 225.03439331 C258.32380445 222.40349563 257.48354505 219.77210556 256.64355469 217.140625 C255.51554286 213.60716719 254.37933433 210.07645721 253.23925781 206.546875 C252.68280384 204.81254455 252.12648326 203.07817129 251.5703125 201.34375 C251.31055634 200.54529663 251.05080017 199.74684326 250.78317261 198.92419434 C249.79967891 195.84432502 249 193.25433214 249 190 C242.30898351 193.14160594 236.03448699 196.74364725 229.76953125 200.66015625 C225.48647937 203.33376328 221.14844107 205.91339281 216.8125 208.5 C208.87374982 213.2439991 200.99205642 218.07567305 193.125 222.9375 C182.27181132 229.64023675 171.32692027 236.17101068 160.32763672 242.63037109 C148.56324441 249.55277941 136.92314133 256.6850537 125.25854492 263.77368164 C119.24450066 267.42778512 113.22784331 271.07696828 107.1875 274.6875 C94.87425166 282.05850416 82.61550785 289.52205359 70.41015625 297.0703125 C68.74400269 298.09983032 68.74400269 298.09983032 67.04418945 299.15014648 C64.9435665 300.44931632 62.84429913 301.75068234 60.74682617 303.05493164 C51.27126139 308.91505279 41.65819408 314.40841395 32 320 C62.69 320.33 93.38 320.66 125 321 C121.31469864 325.91373514 117.67999211 330.6766714 113.6875 335.3125 C110.2154324 339.37456514 106.79348027 343.46572658 103.4375 347.625 C99.61158185 352.33067473 95.56818123 356.79408944 91.46484375 361.2578125 C88.29915789 364.77970073 85.32256489 368.43396728 82.34765625 372.1171875 C79.7718514 375.28015585 77.14309208 378.39330381 74.5 381.5 C71.07638797 385.5249532 67.70017405 389.58027282 64.375 393.6875 C60.79777821 398.08582786 57.05402459 402.29298854 53.23828125 406.484375 C50.19482349 409.90494533 47.32911449 413.45721979 44.44921875 417.015625 C41.17983433 420.99937252 37.8141972 424.89628502 34.44873047 428.79882812 C31.34619895 432.40508804 28.3055976 436.05172233 25.3125 439.75 C22.44721595 443.28247113 19.50124004 446.70075112 16.4375 450.0625 C11.26554313 455.74257895 6.2654501 461.60182485 2 468 C1.34 468 0.68 468 0 468 C0 313.56 0 159.12 0 0 Z " fill="#144269" transform="translate(381,640)"/>
<path d="M0 0 C1.41283086 0.00122743 2.82566416 0.00068781 4.23849392 -0.00146103 C7.9986122 -0.00235861 11.7582142 0.02070789 15.51821136 0.04898071 C19.05532841 0.07187725 22.59232424 0.07283945 26.1295166 0.07568359 C36.45221597 0.09661553 46.77482069 0.15246061 57.09741211 0.20410156 C80.17678711 0.28660156 103.25616211 0.36910156 127.03491211 0.45410156 C127.03491211 86.91410156 127.03491211 173.37410156 127.03491211 262.45410156 C73.90491211 262.45410156 20.77491211 262.45410156 -33.96508789 262.45410156 C-34.12630003 202.42049304 -34.12630003 202.42049304 -34.16040039 177.27441406 C-34.16823149 171.52864537 -34.17631331 165.78287712 -34.18481445 160.03710938 C-34.18586945 159.31700353 -34.18692444 158.59689769 -34.18801141 157.85497046 C-34.20539313 146.24011352 -34.23691979 134.62533606 -34.27369907 123.0105262 C-34.31114849 111.08433199 -34.33333218 99.1581793 -34.34144187 87.23192871 C-34.34643057 80.53574325 -34.35889527 73.83974889 -34.38800812 67.14361954 C-34.41519911 60.83832153 -34.42352527 54.53327733 -34.41751862 48.22792625 C-34.41861719 45.91648033 -34.42654881 43.60502574 -34.44190979 41.2936306 C-34.46189481 38.13075755 -34.45699549 34.96883508 -34.44610596 31.80593872 C-34.46358301 30.44305353 -34.46358301 30.44305353 -34.48141313 29.05263531 C-34.39734938 19.9813937 -31.66158061 12.5001879 -25.23461914 6.02441406 C-17.09859786 0.39501552 -9.73148564 -0.10869512 0 0 Z " fill="#13426A" transform="translate(924.965087890625,639.5458984375)"/>
<path d="M0 0 C14.19 0 28.38 0 43 0 C54.35566547 13.62679856 54.35566547 13.62679856 58.75 19.625 C63.08933857 25.47912079 67.51043119 31.26031955 72 37 C76.34717296 42.56393139 80.65110994 48.15435186 84.875 53.8125 C97.28492531 70.43569737 109.94139643 86.86764928 122.72509766 103.20458984 C131.97251104 115.02261208 141.02405825 126.9747234 150 139 C152.97 142.96 155.94 146.92 159 151 C159.495 76.75 159.495 76.75 160 1 C174.19 1 188.38 1 203 1 C203 74.92 203 148.84 203 225 C188.81 225 174.62 225 160 225 C157.03 221.04 154.06 217.08 151 213 C148.31582589 209.4765417 145.62878645 205.95550207 142.9375 202.4375 C138.13653337 196.15000445 133.37657413 189.84559862 128.75390625 183.42578125 C116.88517732 167.01045683 104.37038544 151.03884457 92 135 C80.21489585 119.72000289 68.49705876 104.38803423 56.94140625 88.93359375 C52.96666743 83.61810637 48.982344 78.309792 45 73 C44.67 123.16 44.34 173.32 44 225 C29.48 225 14.96 225 0 225 C0 150.75 0 76.5 0 0 Z " fill="#144168" transform="translate(963,930)"/>
<path d="M0 0 C0.83272934 0.00222061 1.66545868 0.00444122 2.52342224 0.00672913 C3.46432205 0.00680466 4.40522186 0.00688019 5.37463379 0.00695801 C6.39754013 0.01211929 7.42044647 0.01728058 8.47434998 0.02259827 C9.51614914 0.02401321 10.5579483 0.02542816 11.63131714 0.02688599 C14.97355467 0.03250372 18.31572629 0.04505922 21.65794373 0.05775452 C23.91770839 0.06276723 26.17747409 0.06733053 28.4372406 0.07142639 C33.98999763 0.08247891 39.54271597 0.09923428 45.09544373 0.12025452 C53.08813982 17.74000227 60.65940386 35.51461257 68.10227966 53.37220764 C68.88249276 55.24397759 69.66276635 57.11572232 70.44309998 58.98744202 C70.83057404 59.91687622 71.2180481 60.84631042 71.61726379 61.8039093 C75.60773081 71.36558491 79.65941406 80.9008822 83.72044373 90.43275452 C91.5418505 108.80006524 99.30681124 127.19054662 107.03562927 145.59700012 C108.13504611 148.21454167 109.23528696 150.83173571 110.3356781 153.4488678 C117.90871816 171.46333307 125.4752617 189.48080477 132.85951233 207.57368469 C133.42872941 208.96812631 133.99900387 210.36213681 134.57038879 211.75569153 C135.34544377 213.64784371 136.11513646 215.54218979 136.88450623 217.43666077 C137.3145697 218.49312805 137.74463318 219.54959534 138.18772888 220.63807678 C139.09544373 223.12025452 139.09544373 223.12025452 139.09544373 225.12025452 C123.25544373 225.12025452 107.41544373 225.12025452 91.09544373 225.12025452 C81.71657775 201.67308957 81.71657775 201.67308957 78.09544373 191.99525452 C77.70227966 190.9575592 77.3091156 189.91986389 76.90403748 188.85072327 C76.53407654 187.86459045 76.1641156 186.87845764 75.78294373 185.86244202 C75.45681091 184.99474182 75.1306781 184.12704163 74.79466248 183.23304749 C74.09544373 181.12025452 74.09544373 181.12025452 74.09544373 179.12025452 C39.11544373 179.45025452 4.13544373 179.78025452 -31.90455627 180.12025452 C-36.19455627 191.34025452 -40.48455627 202.56025452 -44.90455627 214.12025452 C-46.55455627 217.75025452 -48.20455627 221.38025452 -49.90455627 225.12025452 C-65.08455627 225.12025452 -80.26455627 225.12025452 -95.90455627 225.12025452 C-95.08034623 220.17499423 -93.91811123 216.27086221 -91.98268127 211.74916077 C-91.68679108 211.04358032 -91.39090088 210.33799988 -91.08604431 209.61103821 C-90.11485328 207.29904466 -89.13470522 204.9909629 -88.15455627 202.68275452 C-87.4682218 201.05305333 -86.78252077 199.42308524 -86.09742737 197.79286194 C-84.70219395 194.4754308 -83.30353945 191.15947785 -81.90162659 187.84486389 C-79.09705144 181.21331331 -76.3136564 174.57291959 -73.52955627 167.93275452 C-73.00641787 166.68720735 -72.48322384 165.44168353 -71.9599762 164.19618225 C-67.7946667 154.27561664 -63.67636538 144.33585145 -59.56291199 134.39369202 C-53.48707074 119.7097463 -47.36386897 105.04821023 -41.13648987 90.4278717 C-40.56434403 89.08446553 -39.99224134 87.74104097 -39.42018127 86.39759827 C-39.13571136 85.7295517 -38.85124146 85.06150513 -38.55815125 84.37321472 C-36.38137036 79.25528773 -34.22540386 74.12881916 -32.07643127 68.99916077 C-24.97638906 52.05659149 -17.79735662 35.15218887 -10.46705627 18.30775452 C-10.09180817 17.4435791 -9.71656006 16.57940369 -9.3299408 15.68904114 C-8.27551636 13.26256476 -7.2176753 10.8376126 -6.15846252 8.41322327 C-5.84259186 7.68601578 -5.52672119 6.95880829 -5.20127869 6.20956421 C-2.54861018 0.16092036 -2.54861018 0.16092036 0 0 Z " fill="#134167" transform="translate(1410.904556274414,929.8797454833984)"/>
<path d="M0 0 C14.52 0 29.04 0 44 0 C44 74.58 44 149.16 44 226 C29.48 226 14.96 226 0 226 C0 151.42 0 76.84 0 0 Z " fill="#124067" transform="translate(1229,930)"/>
<path d="M0 0 C9.013125 -0.0825 18.02625 -0.165 27.3125 -0.25 C31.54767456 -0.30462402 31.54767456 -0.30462402 35.8684082 -0.36035156 C38.13752485 -0.37204763 40.40664997 -0.38223727 42.67578125 -0.390625 C43.82864624 -0.41108887 44.98151123 -0.43155273 46.16931152 -0.45263672 C57.19861415 -0.45733154 66.01502094 2.05855955 74.0546875 9.78125 C80.78641896 17.45920877 82.33342563 24.94246831 82.2109375 34.9375 C81.66546782 42.85691169 78.53235297 49.31879448 73 55 C67.46731715 59.27426871 62.06223743 62.1288302 55 62 C60.94172278 70.37746007 67.2110234 78.48022242 73.53515625 86.5703125 C74.37844482 87.64974121 74.37844482 87.64974121 75.23876953 88.75097656 C76.48637325 90.34411843 77.73772959 91.93432485 78.99169922 93.52246094 C79.63252441 94.3374707 80.27334961 95.15248047 80.93359375 95.9921875 C81.52068115 96.73581543 82.10776855 97.47944336 82.71264648 98.24560547 C84 100 84 100 84 101 C70.18753274 102.35777894 70.18753274 102.35777894 65.5078125 99.453125 C63.42643117 97.08674125 61.72623041 94.63689009 60 92 C58.80612838 90.45393625 57.61160719 88.90828461 56.40136719 87.375 C55.11836179 85.74154859 53.86117855 84.09104749 52.609375 82.43359375 C50.80851952 80.05369608 48.98418412 77.69462958 47.140625 75.34765625 C46.67769043 74.7556543 46.21475586 74.16365234 45.73779297 73.55371094 C44.84445534 72.41231288 43.94775679 71.2735356 43.04736328 70.13769531 C40 66.22439446 40 66.22439446 40 64 C31.09 64 22.18 64 13 64 C13 76.21 13 88.42 13 101 C8.71 101 4.42 101 0 101 C0 67.67 0 34.34 0 0 Z " fill="#ACADAF" transform="translate(1344,1222)"/>
<path d="M0 0 C1.39456452 0.00667256 2.78911118 0.01863093 4.18359375 0.03515625 C5.2499707 0.04192383 5.2499707 0.04192383 6.33789062 0.04882812 C8.09899388 0.06064761 9.86005411 0.07858362 11.62109375 0.09765625 C20.5086227 19.45637812 29.33783763 38.83570463 37.94775391 58.31982422 C39.91752966 62.77172434 41.90060168 67.21768891 43.8828125 71.6640625 C44.99218375 74.15402833 46.10144858 76.64404155 47.21069336 79.13406372 C47.93846653 80.76712312 48.66665189 82.3999989 49.39526367 84.03268433 C50.41323775 86.31418561 51.42946213 88.59645875 52.4453125 90.87890625 C52.75200363 91.56509537 53.05869476 92.25128448 53.37467957 92.95826721 C54.57144453 95.6507266 55.68859724 98.30016671 56.62109375 101.09765625 C51.67109375 101.09765625 46.72109375 101.09765625 41.62109375 101.09765625 C40.11424304 97.82982327 38.61540014 94.55871934 37.12109375 91.28515625 C36.47720703 89.89200195 36.47720703 89.89200195 35.8203125 88.47070312 C35.21123047 87.13168945 35.21123047 87.13168945 34.58984375 85.765625 C34.21279297 84.94344482 33.83574219 84.12126465 33.44726562 83.27416992 C32.62109375 81.09765625 32.62109375 81.09765625 32.62109375 78.09765625 C13.48109375 78.09765625 -5.65890625 78.09765625 -25.37890625 78.09765625 C-26.36890625 81.39765625 -27.35890625 84.69765625 -28.37890625 88.09765625 C-30.25788166 92.82481094 -32.3248379 97.44176798 -34.37890625 102.09765625 C-39.32890625 102.09765625 -44.27890625 102.09765625 -49.37890625 102.09765625 C-44.0168383 89.37338389 -38.44397002 76.75440943 -32.73104858 64.18466187 C-28.2341574 54.28427636 -23.8598018 44.33783667 -19.56640625 34.34765625 C-15.87665114 25.76748067 -12.12956817 17.22564681 -8.12890625 8.78515625 C-7.75789795 8.00237305 -7.38688965 7.21958984 -7.00463867 6.41308594 C-3.97985453 0.1150247 -3.97985453 0.1150247 0 0 Z " fill="#ACADAF" transform="translate(1256.37890625,1221.90234375)"/>
<path d="M0 0 C1.33361153 1.16374086 2.64774021 2.35033987 3.9375 3.5625 C4.55882812 4.09488281 5.18015625 4.62726563 5.8203125 5.17578125 C10.9698361 9.84602019 13.97881646 15.3296537 16.9375 21.5625 C17.35386719 22.37074219 17.77023437 23.17898438 18.19921875 24.01171875 C23.39288105 35.62000958 22.48522329 50.99312494 18.19921875 62.73828125 C11.76543285 77.13960387 2.32868929 86.87394609 -12.375 92.875 C-13.92982178 93.45838814 -15.49279684 94.02042575 -17.0625 94.5625 C-17.99191406 94.92085937 -18.92132812 95.27921875 -19.87890625 95.6484375 C-31.88425621 99.09537233 -45.76077289 96.4390689 -56.6875 90.9375 C-69.27222797 83.55711919 -78.50785209 72.57631004 -82.6796875 58.4765625 C-86.36173947 43.29440301 -84.29790938 28.98446332 -76.875 15.3125 C-69.71702889 3.80211848 -59.26559465 -4.77088716 -46.0625 -8.4375 C-29.45391948 -10.99910566 -13.9511308 -10.43384063 0 0 Z M-62.25 17.1875 C-69.877496 28.32573388 -71.75109219 39.32129073 -70.0625 52.5625 C-67.38116027 64.03201928 -61.42146068 72.87793728 -51.56640625 79.2734375 C-44.89765099 82.70665003 -39.20164534 84.09688835 -31.6875 84 C-30.84968994 83.99097656 -30.01187988 83.98195313 -29.14868164 83.97265625 C-17.86040486 83.65668544 -10.14140119 79.43210323 -2.0625 71.5625 C7.1075552 60.67426603 7.98629487 48.71970324 7.18310547 35.00292969 C6.16512055 24.88784296 0.36003923 17.16031265 -7.0625 10.5625 C-9.9365784 8.50109205 -12.81872392 6.95999372 -16.0625 5.5625 C-17.08923828 5.08683594 -17.08923828 5.08683594 -18.13671875 4.6015625 C-34.01348691 -1.79610009 -51.68876373 4.27338071 -62.25 17.1875 Z " fill="#ADAEB0" transform="translate(1667.0625,1229.4375)"/>
<path d="M0 0 C2.42574626 1.59867269 4.68863902 3.33062915 6.87890625 5.23828125 C6.28607004 8.63020488 5.11147436 10.44905695 2.81640625 12.98828125 C2.26855469 13.601875 1.72070312 14.21546875 1.15625 14.84765625 C0.73472656 15.3065625 0.31320312 15.76546875 -0.12109375 16.23828125 C-3.0776259 14.85282112 -5.60642571 13.21478409 -8.24609375 11.30078125 C-17.5567224 5.11888658 -27.07895439 4.17699572 -38.12109375 5.23828125 C-41.76798761 6.11770933 -44.84410139 7.42775707 -48.12109375 9.23828125 C-48.90097656 9.66238281 -49.68085937 10.08648438 -50.484375 10.5234375 C-58.33187566 15.25831605 -64.34070481 22.3792642 -67.45703125 31.05078125 C-70.29768171 44.68590344 -68.73933204 57.82701915 -61.58203125 69.81640625 C-57.49907987 75.66025136 -52.47379604 79.12321019 -46.12109375 82.23828125 C-45.40179687 82.61210938 -44.6825 82.9859375 -43.94140625 83.37109375 C-39.68868429 84.6787174 -35.54845707 84.66360414 -31.12109375 84.67578125 C-29.72129272 84.68049438 -29.72129272 84.68049438 -28.29321289 84.68530273 C-20.24845608 84.54692374 -14.38608729 82.70592292 -7.12109375 79.23828125 C-5.80109375 78.90828125 -4.48109375 78.57828125 -3.12109375 78.23828125 C-3.12109375 69.98828125 -3.12109375 61.73828125 -3.12109375 53.23828125 C-12.36109375 53.23828125 -21.60109375 53.23828125 -31.12109375 53.23828125 C-31.12109375 41.23828125 -31.12109375 41.23828125 -30.12109375 40.23828125 C-27.16404054 40.14959826 -24.23044319 40.12307829 -21.2734375 40.140625 C-19.94379723 40.14274742 -19.94379723 40.14274742 -18.58729553 40.14491272 C-15.74436121 40.1505291 -12.90150444 40.16308434 -10.05859375 40.17578125 C-8.13606884 40.18079414 -6.21354271 40.18535741 -4.29101562 40.18945312 C0.43232174 40.20050384 5.15560083 40.21777942 9.87890625 40.23828125 C10.00251867 46.28882385 10.09325205 52.33863142 10.15356445 58.39013672 C10.17870644 60.44853518 10.21282501 62.50684439 10.25610352 64.56494141 C10.31676895 67.52398694 10.34511886 70.48185228 10.3671875 73.44140625 C10.39299393 74.36133362 10.41880035 75.28126099 10.44538879 76.22906494 C10.44819631 82.62674853 10.44819631 82.62674853 7.55273438 85.73706055 C-8.40165009 94.69464912 -23.93618111 101.31540011 -42.66796875 97.51953125 C-56.39995048 93.52242859 -68.15121167 86.0811091 -75.80859375 73.703125 C-82.85375699 60.47247617 -85.83369508 45.87180493 -82.25 31.04296875 C-77.75570874 16.69070747 -70.32946707 5.38391499 -56.83813477 -1.70605469 C-38.53044974 -10.9557426 -17.74237253 -10.55393431 0 0 Z " fill="#AEAFB1" transform="translate(1540.12109375,1227.76171875)"/>
<path d="M0 0 C0.66 0 1.32 0 2 0 C2.35843994 0.91881958 2.35843994 0.91881958 2.72412109 1.85620117 C9.89680072 20.22179896 17.19705353 38.53486359 24.54052734 56.83276367 C26.35205083 61.34846076 28.15825596 65.86624244 29.95874023 70.38635254 C30.65828219 72.14226026 31.35898347 73.89770653 32.06079102 75.65270996 C33.06157529 78.15959138 34.05527566 80.66916118 35.046875 83.1796875 C35.34708557 83.92888458 35.64729614 84.67808167 35.956604 85.44998169 C37.13302526 88.44726761 38 90.74952499 38 94 C13.25 94 -11.5 94 -37 94 C-36.24326229 90.21631143 -35.43914398 87.25436219 -34.05859375 83.72265625 C-33.44250244 82.1452063 -33.44250244 82.1452063 -32.81396484 80.53588867 C-32.35973145 79.38967041 -31.90549805 78.24345215 -31.4375 77.0625 C-30.72134521 75.24552612 -30.72134521 75.24552612 -29.99072266 73.3918457 C-25.44937025 61.93115639 -20.64636097 50.58185205 -15.834198 39.23287964 C-10.32584005 26.23975105 -5.01991667 13.19122547 0 0 Z " fill="#F8FAFB" transform="translate(1431,978)"/>
<path d="M0 0 C4.18835719 2.80837823 6.82772629 5.16613505 9.890625 9.25 C7.250625 11.89 4.610625 14.53 1.890625 17.25 C-1.17039499 15.71949001 -3.91936401 14.13353352 -6.796875 12.3125 C-16.80451231 6.35453252 -26.43307762 4.42763371 -38.06640625 6.87109375 C-49.28499373 10.48222706 -57.12663747 16.94403554 -62.76953125 27.22265625 C-67.5134322 37.94138289 -67.70264321 49.55483027 -64.109375 60.625 C-59.81561845 71.18499509 -53.50237592 78.46416523 -43.109375 83.25 C-31.62786715 87.95348374 -21.49845586 86.93628015 -10.109375 82.25 C-7.55080903 80.76414724 -5.18244897 79.19530961 -2.81640625 77.421875 C-1.109375 76.25 -1.109375 76.25 0.890625 76.25 C0.890625 75.59 0.890625 74.93 0.890625 74.25 C4.84739902 75.92401978 7.73526713 78.38149285 10.890625 81.25 C10.890625 83.25 10.890625 83.25 9.16015625 84.984375 C-4.34376802 96.06231605 -18.71322742 100.90596302 -36.109375 99.25 C-49.96072412 96.43468514 -62.34037218 89.41443773 -71.109375 78.25 C-77.75358607 67.51371269 -80.30649694 58.19351675 -80.421875 45.625 C-80.45087891 44.59503906 -80.47988281 43.56507812 -80.50976562 42.50390625 C-80.62031722 28.98259591 -74.97377453 17.28535209 -65.796875 7.4375 C-48.05408379 -9.11715787 -20.95533369 -11.79395665 0 0 Z " fill="#ADADAF" transform="translate(1177.109375,1226.75)"/>
<path d="M0 0 C9.590625 -0.1546875 9.590625 -0.1546875 19.375 -0.3125 C21.37224121 -0.35802002 23.36948242 -0.40354004 25.42724609 -0.45043945 C36.04425341 -0.59114993 44.41386008 -0.30683292 52.5 7.375 C55.55642052 12.72373592 57.22880388 18.86695209 56 25 C53.76619027 30.4449112 51.16326123 34.84261213 45.8125 37.5625 C40.51000411 39.7483415 35.87634766 40.13293238 30.17578125 40.09765625 C29.41213257 40.09664917 28.64848389 40.09564209 27.86169434 40.09460449 C25.01194759 40.08937664 22.16222227 40.07541536 19.3125 40.0625 C12.939375 40.041875 6.56625 40.02125 0 40 C0 26.8 0 13.6 0 0 Z " fill="#FCFDFD" transform="translate(1357,1234)"/>
<path d="M0 0 C46.53 0 93.06 0 141 0 C141 86.46 141 172.92 141 262 C88.2 262 35.4 262 -19 262 C-19 182.8 -19 103.6 -19 22 C-18.67 22 -18.34 22 -18 22 C-17.67 100.54 -17.34 179.08 -17 260 C32.8432671 259.96039663 32.8432671 259.96039663 82.68652344 259.90991211 C92.31689453 259.90539551 92.31689453 259.90539551 96.82232666 259.90455627 C99.97549134 259.90362295 103.12863926 259.89986879 106.28179932 259.89442444 C110.30160795 259.88757543 114.32139214 259.885507 118.34120607 259.88692772 C119.81787519 259.88663055 121.29454513 259.88464169 122.77120924 259.88078487 C124.76362472 259.87582198 126.75605361 259.87760428 128.74847412 259.87974548 C129.86568722 259.87882369 130.98290031 259.8779019 132.13396835 259.87695217 C134.62438184 259.98387352 136.61518499 260.35521747 139 261 C138.99392447 259.78669384 138.98784895 258.57338768 138.98158932 257.32331467 C138.83721496 228.44215235 138.69853529 199.56096638 138.5667524 170.67974399 C138.5504838 167.11543461 138.53416772 163.55112544 138.51782227 159.98681641 C138.51294288 158.92255032 138.51294288 158.92255032 138.50796492 157.83678392 C138.45536392 146.38836119 138.39892709 134.93996049 138.3410418 123.49156341 C138.28161551 111.72127503 138.22638297 99.9509722 138.17494446 88.18064618 C138.14597733 81.57922267 138.11501512 74.97781854 138.07946587 68.3764267 C138.04598828 62.14833226 138.01773598 55.92023486 137.99329376 49.69209862 C137.98349315 47.42033437 137.97187045 45.14857704 137.95816994 42.87683296 C137.939566 39.74403933 137.92789638 36.61128547 137.91770935 33.47845459 C137.91090556 32.60677478 137.90410177 31.73509496 137.89709181 30.83700061 C137.88057291 21.18087109 138.51547877 11.69042463 139 2 C93.13 2 47.26 2 0 2 C0 1.34 0 0.68 0 0 Z " fill="#284862" transform="translate(911,640)"/>
<path d="M0 0 C0.66 0 1.32 0 2 0 C2.34667725 0.77375977 2.69335449 1.54751953 3.05053711 2.34472656 C4.08932073 4.66305668 5.12822554 6.98133225 6.16723633 9.29956055 C7.35124656 11.94139137 8.53459468 14.58351747 9.7175293 17.22583008 C12.41990318 23.25994704 15.12707159 29.29148697 17.8671875 35.30859375 C18.28492432 36.22801758 18.70266113 37.14744141 19.13305664 38.09472656 C19.90518692 39.7921026 20.68030175 41.4881249 21.45874023 43.18261719 C24 48.77736598 24 48.77736598 24 51 C8.82 51 -6.36 51 -22 51 C-19.75012314 44.25036941 -19.75012314 44.25036941 -18.26000977 40.94165039 C-17.7642318 39.83503807 -17.7642318 39.83503807 -17.25843811 38.70606995 C-16.9063176 37.92779343 -16.55419708 37.14951691 -16.19140625 36.34765625 C-15.8240184 35.52929794 -15.45663055 34.71093964 -15.07810974 33.86778259 C-13.90893999 31.26479768 -12.73587269 28.66359264 -11.5625 26.0625 C-10.39349334 23.46462699 -9.22530207 20.86638958 -8.05760193 18.26792908 C-7.33283809 16.65582468 -6.60719128 15.04411686 -5.88050842 13.43287659 C-3.87264732 8.97455531 -1.91190932 4.5003404 0 0 Z " fill="#FBFBFB" transform="translate(1259,1237)"/>
<path d="M0 0 C14.52 0 29.04 0 44 0 C44 74.58 44 149.16 44 226 C29.48 226 14.96 226 0 226 C0 151.42 0 76.84 0 0 Z M2 3 C1.90208056 5.83208973 1.87007405 8.63979281 1.87974548 11.4723053 C1.87889106 12.37154124 1.87803663 13.27077719 1.87715632 14.1972627 C1.87549875 17.2344742 1.88102738 20.27163142 1.88647461 23.30883789 C1.88675645 25.4764455 1.88659881 27.64405321 1.8860321 29.81166077 C1.885744 35.71638021 1.89164283 41.62107952 1.89860606 47.52579427 C1.90483744 53.68910576 1.90544323 59.85241766 1.90663147 66.01573181 C1.90974543 77.695889 1.91795968 89.37603688 1.92798096 101.05618995 C1.93914011 114.34979226 1.94465204 127.64339431 1.94967639 140.93700039 C1.96014224 168.29133877 1.97774292 195.64566886 2 223 C6.42117642 223.65742567 10.65358143 224.12780931 15.125 224.1328125 C16.80335937 224.13474609 16.80335937 224.13474609 18.515625 224.13671875 C19.66546875 224.13285156 20.8153125 224.12898438 22 224.125 C23.72476562 224.13080078 23.72476562 224.13080078 25.484375 224.13671875 C26.60328125 224.13542969 27.7221875 224.13414062 28.875 224.1328125 C29.88304687 224.13168457 30.89109375 224.13055664 31.9296875 224.12939453 C35.33660608 223.98581415 38.62899628 223.50126577 42 223 C42.02332528 194.3328347 42.04097735 165.66567082 42.05181217 136.99849796 C42.05697592 123.6888546 42.06402011 110.37921938 42.07543945 97.06958008 C42.08538389 85.47349956 42.09185285 73.8774233 42.09408849 62.28133863 C42.09539601 56.13716475 42.09848444 49.99300307 42.10573006 43.84883308 C42.11248649 38.0730259 42.11461774 32.297236 42.11310768 26.52142525 C42.11338418 24.39488125 42.11539153 22.26833671 42.11920547 20.14179611 C42.12413683 17.25194416 42.12300036 14.36215859 42.12025452 11.4723053 C42.12462378 10.19266162 42.12462378 10.19266162 42.12908131 8.88716656 C42.48221852 5.13898037 42.48221852 5.13898037 41 2 C38.20006403 1.89896745 35.42531356 1.86029912 32.625 1.8671875 C31.78533691 1.86623077 30.94567383 1.86527405 30.08056641 1.86428833 C28.30175705 1.86360652 26.52294523 1.86546083 24.74414062 1.86962891 C22.01166224 1.87497717 19.27934824 1.86968395 16.546875 1.86328125 C14.8229163 1.86394203 13.09895771 1.86522319 11.375 1.8671875 C10.55209473 1.86516327 9.72918945 1.86313904 8.88134766 1.86105347 C5.13620134 1.5142454 5.13620134 1.5142454 2 3 Z " fill="#405F75" transform="translate(1229,930)"/>
<path d="M0 0 C2.640625 0.58203125 2.640625 0.58203125 5.37890625 1.6015625 C9.63608002 2.88126384 13.65593791 2.96447506 18.078125 3.08203125 C23.98800979 3.23987578 28.9332645 3.8876586 34.640625 5.58203125 C37.42282191 5.66885693 40.11778469 5.52460956 42.89453125 5.359375 C46.69901455 5.66784662 48.45910923 6.37607414 51.640625 8.58203125 C54.37372029 11.97253364 56.68998157 15.59171309 59.015625 19.26953125 C59.65628906 20.25759766 60.29695312 21.24566406 60.95703125 22.26367188 C62.53109385 24.69524619 64.09156117 27.13448497 65.640625 29.58203125 C64.980625 30.24203125 64.320625 30.90203125 63.640625 31.58203125 C63.57875 30.96328125 63.516875 30.34453125 63.453125 29.70703125 C63.185 29.00578125 62.916875 28.30453125 62.640625 27.58203125 C61.815625 27.25203125 60.990625 26.92203125 60.140625 26.58203125 C59.315625 26.25203125 58.490625 25.92203125 57.640625 25.58203125 C57.015625 23.51953125 57.015625 23.51953125 56.640625 21.58203125 C55.155625 21.08703125 55.155625 21.08703125 53.640625 20.58203125 C53.145625 21.28328125 52.650625 21.98453125 52.140625 22.70703125 C49.02987063 26.28439878 45.49682256 28.85835773 41.640625 31.58203125 C42.300625 29.93203125 42.960625 28.28203125 43.640625 26.58203125 C42.650625 26.58203125 41.660625 26.58203125 40.640625 26.58203125 C40.640625 25.92203125 40.640625 25.26203125 40.640625 24.58203125 C38.990625 24.58203125 37.340625 24.58203125 35.640625 24.58203125 C36.960625 22.60203125 38.280625 20.62203125 39.640625 18.58203125 C38.320625 18.91203125 37.000625 19.24203125 35.640625 19.58203125 C35.145625 17.60203125 35.145625 17.60203125 34.640625 15.58203125 C33.09375 15.67484375 33.09375 15.67484375 31.515625 15.76953125 C27.40593527 15.5706753 25.15180004 14.63735322 21.640625 12.58203125 C21.640625 11.92203125 21.640625 11.26203125 21.640625 10.58203125 C21.104375 10.47890625 20.568125 10.37578125 20.015625 10.26953125 C17.01560456 9.40110428 14.4026715 8.02582829 11.640625 6.58203125 C11.310625 7.24203125 10.980625 7.90203125 10.640625 8.58203125 C10.08375 8.06640625 9.526875 7.55078125 8.953125 7.01953125 C6.76257305 5.3285944 6.76257305 5.3285944 4.328125 5.83203125 C2.9978125 6.20328125 2.9978125 6.20328125 1.640625 6.58203125 C-0.1228125 6.82953125 -0.1228125 6.82953125 -1.921875 7.08203125 C-7.89263002 7.85279937 -7.89263002 7.85279937 -12.359375 11.58203125 C-13.019375 11.25203125 -13.679375 10.92203125 -14.359375 10.58203125 C-14.689375 11.24203125 -15.019375 11.90203125 -15.359375 12.58203125 C-16.349375 12.25203125 -17.339375 11.92203125 -18.359375 11.58203125 C-9.09076207 -0.80292659 -9.09076207 -0.80292659 0 0 Z " fill="#4D6F8B" transform="translate(605.359375,1063.41796875)"/>
<path d="M0 0 C3.82516038 3.46766876 6.45754712 7.45579194 9.25 11.75 C9.70890625 12.44738281 10.1678125 13.14476562 10.640625 13.86328125 C11.76465406 15.57274211 12.88291224 17.28599512 14 19 C13.34 19.66 12.68 20.32 12 21 C11.938125 20.38125 11.87625 19.7625 11.8125 19.125 C11.544375 18.42375 11.27625 17.7225 11 17 C10.175 16.67 9.35 16.34 8.5 16 C7.2625 15.505 7.2625 15.505 6 15 C5.375 12.9375 5.375 12.9375 5 11 C4.01 10.67 3.02 10.34 2 10 C1.505 10.70125 1.01 11.4025 0.5 12.125 C-2.61075437 15.70236753 -6.14380244 18.27632648 -10 21 C-9.34 19.35 -8.68 17.7 -8 16 C-8.99 16 -9.98 16 -11 16 C-11 15.34 -11 14.68 -11 14 C-12.65 14 -14.3 14 -16 14 C-14.02 11.03 -14.02 11.03 -12 8 C-13.32 8.33 -14.64 8.66 -16 9 C-16.33 7.35 -16.66 5.7 -17 4 C-12.27679445 3.29654385 -7.58145759 2.75818391 -2.8203125 2.37890625 C-2.21960938 2.25386719 -1.61890625 2.12882812 -1 2 C-0.67 1.34 -0.34 0.68 0 0 Z " fill="#89A0B4" transform="translate(657,1074)"/>
<path d="M0 0 C13.86 0 27.72 0 42 0 C42 2.31 42 4.62 42 7 C41.67 7 41.34 7 41 7 C41 5.02 41 3.04 41 1 C35.76693114 1.09340698 30.534332 1.19947109 25.30175781 1.31738281 C23.52090527 1.35571565 21.73997416 1.39056089 19.95898438 1.421875 C17.40205766 1.46743271 14.8456739 1.52544107 12.2890625 1.5859375 C11.49005524 1.59748871 10.69104797 1.60903992 9.86782837 1.62094116 C5.46542788 1.57258944 5.46542788 1.57258944 2 4 C1.68448418 6.6596645 1.68448418 6.6596645 1.7215271 9.82119751 C1.71036362 11.06082748 1.69920013 12.30045746 1.68769836 13.57765198 C1.68533317 14.95883149 1.68315756 16.34001133 1.68115234 17.72119141 C1.67185827 19.16974958 1.66169039 20.61830237 1.65071106 22.06684875 C1.62333809 26.00667587 1.60824015 29.9464671 1.59528303 33.88636446 C1.57968429 38.00105707 1.55288377 42.11567602 1.5272522 46.23031616 C1.48040655 54.02527633 1.44369052 61.82025027 1.41057932 69.61527956 C1.37239872 78.4882376 1.32297799 87.36112177 1.27259517 96.23401761 C1.1691893 114.48929106 1.07995714 132.74460955 1 151 C0.67 151 0.34 151 0 151 C0 101.17 0 51.34 0 0 Z " fill="#123653" transform="translate(1123,931)"/>
<path d="M0 0 C30.36 0 60.72 0 92 0 C90.68 1.32 89.36 2.64 88 4 C88 3.01 88 2.02 88 1 C87.34 1.33 86.68 1.66 86 2 C83.60615846 2.09795765 81.24147752 2.1363307 78.84741211 2.12939453 C78.11055176 2.13114685 77.37369141 2.13289917 76.61450195 2.13470459 C74.16875884 2.13911915 71.72308765 2.1361844 69.27734375 2.1328125 C67.57540371 2.13348616 65.87346376 2.1344567 64.17152405 2.13571167 C60.5961923 2.13718852 57.02088549 2.13503637 53.44555664 2.13037109 C48.88175665 2.12470404 44.31801586 2.12793358 39.7542181 2.13394356 C36.23415185 2.13757542 32.71409936 2.13639805 29.19403267 2.13381577 C27.51286372 2.13315217 25.83169349 2.13395494 24.15052605 2.13629532 C7.97102225 2.1538589 7.97102225 2.1538589 0 1 C0 0.67 0 0.34 0 0 Z " fill="#22425D" transform="translate(414,961)"/>
<path d="M0 0 C5.8294661 0.97555981 11.59740172 2.19581788 17.375 3.4375 C18.9464503 3.76706039 20.51806394 4.09584288 22.08984375 4.42382812 C33.41187504 6.80395835 33.41187504 6.80395835 37 8 C37 8.66 37 9.32 37 10 C32.87697652 10.14466749 29.79624781 10.24356966 25.8203125 9.02734375 C21.29908766 7.81151335 17.09543178 7.5875198 12.4375 7.4375 C7.20753476 7.24531207 2.15261207 7.01047984 -3 6 C-3 5.34 -3 4.68 -3 4 C-6.3 4 -9.6 4 -13 4 C-9.46083132 -0.92406077 -5.56677605 -0.52775517 0 0 Z " fill="#365E80" transform="translate(611,1060)"/>
<path d="M0 0 C2.68826864 0.11490912 5.37513469 0.24163199 8.0625 0.375 C8.81466797 0.4059375 9.56683594 0.436875 10.34179688 0.46875 C15.18003974 0.72008729 19.32818316 1.64062337 24 3 C26.84739436 3.13102552 26.84739436 3.13102552 29.5625 2.9375 C34.1452918 2.83018945 37.06683237 3.44875613 41 6 C40.67 6.66 40.34 7.32 40 8 C36.29181703 8.08756305 32.58390237 8.14058015 28.875 8.1875 C27.30492187 8.22520508 27.30492187 8.22520508 25.703125 8.26367188 C19.95438414 8.31824853 16.01633792 8.12021019 11 5 C9.00577205 4.63371323 7.00546689 4.29868656 5 4 C3.31624835 3.37774395 1.64232772 2.72455635 0 2 C0 1.34 0 0.68 0 0 Z " fill="#446988" transform="translate(616,1066)"/>
<path d="M0 0 C1.258125 0.12375 2.51625 0.2475 3.8125 0.375 C4.87404297 0.47941406 4.87404297 0.47941406 5.95703125 0.5859375 C8 1 8 1 11 3 C13.61601555 3.27599951 13.61601555 3.27599951 16.54296875 3.1953125 C17.61611328 3.18886719 18.68925781 3.18242188 19.79492188 3.17578125 C20.91447266 3.15902344 22.03402344 3.14226562 23.1875 3.125 C24.31865234 3.11597656 25.44980469 3.10695313 26.61523438 3.09765625 C29.41036828 3.07406862 32.20507845 3.041153 35 3 C34.67 4.32 34.34 5.64 34 7 C31.00134465 7.36190668 28.00421799 7.68949693 25 8 C23.26556641 8.19529297 23.26556641 8.19529297 21.49609375 8.39453125 C20.28050781 8.51183594 19.06492187 8.62914062 17.8125 8.75 C16.66394531 8.86859375 15.51539063 8.9871875 14.33203125 9.109375 C10.50366136 8.98370752 8.27119543 7.92598456 5 6 C5 5.34 5 4.68 5 4 C4.360625 3.896875 3.72125 3.79375 3.0625 3.6875 C2.381875 3.460625 1.70125 3.23375 1 3 C0.67 2.01 0.34 1.02 0 0 Z " fill="#6A869F" transform="translate(622,1070)"/>
<path d="M0 0 C0.99 0.495 0.99 0.495 2 1 C2 1.66 2 2.32 2 3 C24.77 2.505 24.77 2.505 48 2 C48.495 3.485 48.495 3.485 49 5 C33.16 5 17.32 5 1 5 C0.67 3.35 0.34 1.7 0 0 Z " fill="#24445C" transform="translate(1501,1150)"/>
<path d="M0 0 C4.87305969 4.29975855 7.8200442 9.37224317 11 15 C10.01 15.495 10.01 15.495 9 16 C8.938125 15.38125 8.87625 14.7625 8.8125 14.125 C8.544375 13.42375 8.27625 12.7225 8 12 C6.7625 11.505 6.7625 11.505 5.5 11 C4.2625 10.505 4.2625 10.505 3 10 C2.375 7.9375 2.375 7.9375 2 6 C1.01 5.67 0.02 5.34 -1 5 C-1.495 5.70125 -1.99 6.4025 -2.5 7.125 C-5.61075437 10.70236753 -9.14380244 13.27632648 -13 16 C-12.34 14.35 -11.68 12.7 -11 11 C-11.99 11 -12.98 11 -14 11 C-13 8 -13 8 -10.3125 6.46484375 C-9.219375 5.96082031 -8.12625 5.45679688 -7 4.9375 C-2.74298406 3.28234049 -2.74298406 3.28234049 0 0 Z " fill="#BDCAD5" transform="translate(660,1079)"/>
<path d="M0 0 C0.66 0.33 1.32 0.66 2 1 C-14.05950466 19.63560268 -14.05950466 19.63560268 -22.2734375 26.53125 C-24.65788883 28.55965204 -26.82172567 30.7536546 -29 33 C-29.66 32.67 -30.32 32.34 -31 32 C-30.43079834 31.43603516 -29.86159668 30.87207031 -29.27514648 30.29101562 C-26.65988156 27.69673231 -24.04867381 25.09840077 -21.4375 22.5 C-20.54224609 21.613125 -19.64699219 20.72625 -18.72460938 19.8125 C-14.11222704 15.21701284 -9.62604509 10.58191111 -5.40234375 5.625 C-3.69711909 3.64902936 -1.88236824 1.80707351 0 0 Z " fill="#D7E6EE" transform="translate(586,1076)"/>
<path d="M0 0 C0.33 0.99 0.66 1.98 1 3 C-0.51171875 5.3046875 -0.51171875 5.3046875 -2.6875 7.875 C-3.39261719 8.71804688 -4.09773437 9.56109375 -4.82421875 10.4296875 C-5.54222656 11.27789063 -6.26023437 12.12609375 -7 13 C-7.67675781 13.84691406 -8.35351562 14.69382812 -9.05078125 15.56640625 C-13.09302438 20.61313465 -17.33268768 25.51938018 -22 30 C-22.66 29.67 -23.32 29.34 -24 29 C-23.2265625 28.10539063 -22.453125 27.21078125 -21.65625 26.2890625 C-15.62914997 19.29913906 -9.70952481 12.25369175 -4 5 C-2.66781108 3.33241845 -1.3347607 1.66552377 0 0 Z " fill="#2B4C66" transform="translate(609,963)"/>
<path d="M0 0 C6.53323629 0.52598089 13.05156471 1.18680326 19.5625 1.9375 C20.26503906 2.01210449 20.96757813 2.08670898 21.69140625 2.16357422 C26.7698648 2.7698648 26.7698648 2.7698648 29 5 C25.29181703 5.08756305 21.58390237 5.14058015 17.875 5.1875 C16.30492187 5.22520508 16.30492187 5.22520508 14.703125 5.26367188 C8.94528536 5.31833491 4.86485368 5.20676341 0 2 C0 1.34 0 0.68 0 0 Z " fill="#557793" transform="translate(627,1069)"/>
<path d="M0 0 C0.33 0.99 0.66 1.98 1 3 C-0.5625 5.25 -0.5625 5.25 -3 8 C-3.93865283 9.10318681 -4.87607682 10.20741996 -5.8125 11.3125 C-6.32167969 11.89902344 -6.83085938 12.48554687 -7.35546875 13.08984375 C-8.52043468 14.4429752 -9.66717404 15.81189726 -10.80078125 17.19140625 C-11.40277344 17.91199219 -12.00476563 18.63257813 -12.625 19.375 C-13.17414062 20.04273438 -13.72328125 20.71046875 -14.2890625 21.3984375 C-16.19179437 23.17953355 -17.45468174 23.61097756 -20 24 C-16.04632947 18.44935667 -11.71992625 13.37333144 -7.125 8.34375 C-4.66214499 5.6273658 -2.31735929 2.84063397 0 0 Z " fill="#2A4C67" transform="translate(580,998)"/>
<path d="M0 0 C6.04092255 0.63588658 11.97016597 1.99336554 17.89453125 3.3046875 C15.89453125 5.3046875 15.89453125 5.3046875 12.51953125 5.4921875 C8.89453125 5.3046875 8.89453125 5.3046875 7.12109375 4.828125 C3.97881298 4.08941338 0.86298798 3.95079118 -2.35546875 3.7421875 C-3.61875 3.65839844 -4.88203125 3.57460937 -6.18359375 3.48828125 C-7.1478125 3.42769531 -8.11203125 3.36710937 -9.10546875 3.3046875 C-6.32056939 0.05563824 -4.27594954 -0.12764028 0 0 Z " fill="#325A7D" transform="translate(608.10546875,1059.6953125)"/>
<path d="M0 0 C0.66 0.66 1.32 1.32 2 2 C-1.16277083 6.74415624 -6.01441534 9.37500562 -11.59375 10.54296875 C-13.72194785 10.77531947 -15.86157916 10.89817044 -18 11 C-16.23003948 7.72557303 -14.70084948 6.2186574 -11.1328125 5.10546875 C-8.98963664 4.62492452 -6.83815804 4.17979992 -4.6796875 3.7734375 C-1.68049268 3.22013242 -1.68049268 3.22013242 0 0 Z " fill="#A4B7C6" transform="translate(659,1077)"/>
<path d="M0 0 C0 4.77220588 -2.72728102 7.66990434 -5.90625 10.9921875 C-7.29623696 12.3666149 -8.6920467 13.73517972 -10.09375 15.09765625 C-12.25986892 17.2593364 -14.16454977 19.55273303 -16 22 C-16.99 21.67 -17.98 21.34 -19 21 C-18.59910156 20.62230469 -18.19820313 20.24460937 -17.78515625 19.85546875 C-13.13320169 15.35119529 -9.05559504 10.51015043 -5.015625 5.453125 C-3.41908062 3.51004385 -1.82047747 1.7283014 0 0 Z " fill="#264964" transform="translate(431,1175)"/>
<path d="M0 0 C0.99 0.33 1.98 0.66 3 1 C2.42507813 1.25007812 1.85015625 1.50015625 1.2578125 1.7578125 C-1.31026142 3.17069746 -3.06244669 4.79676187 -5.125 6.875 C-6.14980469 7.89207031 -6.14980469 7.89207031 -7.1953125 8.9296875 C-10.20951115 12.38753443 -11.22426343 15.20831888 -11.625 19.75 C-11.69976563 20.54921875 -11.77453125 21.3484375 -11.8515625 22.171875 C-11.90054688 22.77515625 -11.94953125 23.3784375 -12 24 C-14.29009641 19.93463505 -14.10586446 17.58143848 -13 13 C-10.11108482 7.55550601 -5.56738144 2.78369072 0 0 Z " fill="#244661" transform="translate(906,642)"/>
<path d="M0 0 C15.18 0 30.36 0 46 0 C45.67 0.66 45.34 1.32 45 2 C43.71311279 1.99476318 42.42622559 1.98952637 41.1003418 1.98413086 C36.33130589 1.9660472 31.56227302 1.95455563 26.79321289 1.94506836 C24.72810354 1.94003586 22.66299776 1.93320931 20.59790039 1.92456055 C17.63166422 1.91244764 14.66547511 1.90676089 11.69921875 1.90234375 C10.7741301 1.89718246 9.84904144 1.89202118 8.8959198 1.88670349 C8.03525406 1.88662796 7.17458832 1.88655243 6.2878418 1.88647461 C5.53061325 1.884254 4.7733847 1.88203339 3.99320984 1.87974548 C1.78963753 1.92649769 1.78963753 1.92649769 -1 3 C-0.67 2.01 -0.34 1.02 0 0 Z " fill="#203F59" transform="translate(1409,930)"/>
<path d="M0 0 C2.41674224 -0.02705308 4.8331794 -0.04686438 7.25 -0.0625 C7.93191406 -0.07087891 8.61382813 -0.07925781 9.31640625 -0.08789062 C12.73300397 -0.10447605 15.71410884 0.10891087 19 1 C20.74886981 1.06624507 22.50002748 1.08552595 24.25 1.0625 C25.14203125 1.05347656 26.0340625 1.04445313 26.953125 1.03515625 C27.62859375 1.02355469 28.3040625 1.01195312 29 1 C29 1.99 29 2.98 29 4 C26.95840905 4.0272616 24.91671037 4.04651345 22.875 4.0625 C21.73804688 4.07410156 20.60109375 4.08570313 19.4296875 4.09765625 C16.1870844 4.005327 13.18067388 3.61389906 10 3 C10 2.34 10 1.68 10 1 C6.7 1 3.4 1 0 1 C0 0.67 0 0.34 0 0 Z " fill="#406483" transform="translate(598,1063)"/>
<path d="M0 0 C0.474375 0.53625 0.94875 1.0725 1.4375 1.625 C-0.17125 1.8415625 -0.17125 1.8415625 -1.8125 2.0625 C-7.96137234 2.83947759 -7.96137234 2.83947759 -12.5625 6.625 C-13.2225 6.295 -13.8825 5.965 -14.5625 5.625 C-14.8925 6.285 -15.2225 6.945 -15.5625 7.625 C-16.5525 7.295 -17.5425 6.965 -18.5625 6.625 C-13.73633551 1.69020801 -6.99420033 -3.75298554 0 0 Z " fill="#758FA6" transform="translate(605.5625,1068.375)"/>
<path d="M0 0 C0.66 0.33 1.32 0.66 2 1 C-1.40991208 6.54110713 -5.61420043 11.20968493 -10 16 C-10.66 15.34 -11.32 14.68 -12 14 C-8.04 9.38 -4.08 4.76 0 0 Z " fill="#284B67" transform="translate(477,1120)"/>
<path d="M0 0 C1.65 0 3.3 0 5 0 C2.90585727 2.23016282 0.80888958 3.87772402 -1.79296875 5.48046875 C-2.50517578 5.92197266 -3.21738281 6.36347656 -3.95117188 6.81835938 C-4.68916016 7.27017578 -5.42714844 7.72199219 -6.1875 8.1875 C-6.93708984 8.65091797 -7.68667969 9.11433594 -8.45898438 9.59179688 C-10.30372367 10.73154026 -12.15156289 11.86626355 -14 13 C-14.33 12.01 -14.66 11.02 -15 10 C-14.01 10 -13.02 10 -12 10 C-12 9.34 -12 8.68 -12 8 C-10.35 7.67 -8.7 7.34 -7 7 C-7 6.34 -7 5.68 -7 5 C-5.5459375 4.5978125 -5.5459375 4.5978125 -4.0625 4.1875 C-3.051875 3.795625 -2.04125 3.40375 -1 3 C-0.67 2.01 -0.34 1.02 0 0 Z " fill="#2D4D67" transform="translate(552,872)"/>
<path d="M0 0 C3.14822808 2.93927489 5.45457845 5.9856778 7.75 9.625 C8.36359375 10.58664062 8.9771875 11.54828125 9.609375 12.5390625 C11 15 11 15 11 17 C11.66 17 12.32 17 13 17 C13 17.99 13 18.98 13 20 C13.66 20 14.32 20 15 20 C14.67 20.99 14.34 21.98 14 23 C10.65513971 18.95178124 7.67514586 14.72870547 4.75 10.375 C4.29109375 9.70726562 3.8321875 9.03953125 3.359375 8.3515625 C0 3.35249256 0 3.35249256 0 0 Z " fill="#23435F" transform="translate(780,1258)"/>
<path d="M0 0 C2.875 1.5 2.875 1.5 5 3 C1.25 4.125 1.25 4.125 -1 3 C-3.12467779 3.32169943 -3.12467779 3.32169943 -5.4375 3.9375 C-8.13005762 4.60731252 -10.20222173 5 -13 5 C-8.9017469 0.61910875 -6.02410851 -0.48192868 0 0 Z " fill="#5A7994" transform="translate(604,1065)"/>
<path d="M0 0 C0.99 0.99 1.98 1.98 3 3 C-0.70821628 5.35108558 -4.48605238 5.43155058 -8.75 5.625 C-9.44738281 5.66367188 -10.14476562 5.70234375 -10.86328125 5.7421875 C-12.57510818 5.83598624 -14.28751682 5.91906174 -16 6 C-16.33 5.34 -16.66 4.68 -17 4 C-12.27679445 3.29654385 -7.58145759 2.75818391 -2.8203125 2.37890625 C-2.21960938 2.25386719 -1.61890625 2.12882812 -1 2 C-0.67 1.34 -0.34 0.68 0 0 Z " fill="#7C97AF" transform="translate(657,1074)"/>
<path d="M0 0 C-5.28 3.3 -10.56 6.6 -16 10 C-16.33 9.01 -16.66 8.02 -17 7 C-11.25 4 -11.25 4 -9 4 C-9 3.34 -9 2.68 -9 2 C-5.33876089 -0.74592933 -4.63002084 -1.15750521 0 0 Z " fill="#2A4962" transform="translate(453,936)"/>
<path d="M0 0 C-2.05952358 1.29662538 -4.12237057 2.58735727 -6.1875 3.875 C-6.76564453 4.23980469 -7.34378906 4.60460937 -7.93945312 4.98046875 C-11.20278033 7.0085252 -14.38059362 8.70492051 -18 10 C-18 9.34 -18 8.68 -18 8 C-17.34 8 -16.68 8 -16 8 C-16 7.34 -16 6.68 -16 6 C-14.865625 5.54625 -13.73125 5.0925 -12.5625 4.625 C-8.95278308 3.42904194 -8.95278308 3.42904194 -8 1 C-3.6 -1.2 -3.6 -1.2 0 0 Z " fill="#274861" transform="translate(620,835)"/>
<path d="M0 0 C0.66 0 1.32 0 2 0 C-0.19037174 6.72045875 -2.55765661 13.36724003 -5 20 C-5.33 20 -5.66 20 -6 20 C-6.37649141 14.90167878 -5.10818776 11.17374746 -3 6.625 C-2.71382812 5.98433594 -2.42765625 5.34367187 -2.1328125 4.68359375 C-1.4317683 3.11792837 -0.71724882 1.55830844 0 0 Z " fill="#274760" transform="translate(1373,1119)"/>
<path d="M0 0 C0.99 0.495 0.99 0.495 2 1 C2 1.66 2 2.32 2 3 C2.66 3 3.32 3 4 3 C4 3.66 4 4.32 4 5 C4.66 5 5.32 5 6 5 C7.05589069 6.63183107 8.0436126 8.30792999 9 10 C10.32458708 12.00580329 11.6559907 14.00715862 13 16 C12.34 16.33 11.68 16.66 11 17 C9.15895764 14.54735411 7.32852207 12.08699041 5.5 9.625 C4.71302734 8.57699219 4.71302734 8.57699219 3.91015625 7.5078125 C3.41386719 6.8375 2.91757813 6.1671875 2.40625 5.4765625 C1.94541016 4.85861816 1.48457031 4.24067383 1.00976562 3.60400391 C0 2 0 2 0 0 Z " fill="#25455F" transform="translate(1047,1052)"/>
<path d="M0 0 C0.66 0.33 1.32 0.66 2 1 C0.8758824 2.29243468 -0.24932592 3.58392075 -1.375 4.875 C-2.00148438 5.59429688 -2.62796875 6.31359375 -3.2734375 7.0546875 C-4.47426834 8.4076598 -5.7208345 9.7208345 -7 11 C-7.99 10.67 -8.98 10.34 -10 10 C-6.7 6.7 -3.4 3.4 0 0 Z " fill="#A6BCCC" transform="translate(586,1076)"/>
<path d="M0 0 C0.66 0.33 1.32 0.66 2 1 C-0.97 4.63 -3.94 8.26 -7 12 C-7.33 10.68 -7.66 9.36 -8 8 C-7.071875 7.6596875 -7.071875 7.6596875 -6.125 7.3125 C-3.37739861 5.61545208 -3.06789821 3.97485929 -2 1 C-1.34 0.67 -0.68 0.34 0 0 Z " fill="#264761" transform="translate(409,1073)"/>
<path d="M0 0 C3.88800558 1.29600186 5.39873667 3.70784087 7.75 6.875 C8.17410156 7.41769531 8.59820313 7.96039062 9.03515625 8.51953125 C10.234375 10.1171875 10.234375 10.1171875 12 13 C11.67 13.99 11.34 14.98 11 16 C10.66226562 15.50628906 10.32453125 15.01257813 9.9765625 14.50390625 C9.53054688 13.86324219 9.08453125 13.22257813 8.625 12.5625 C8.18414063 11.92441406 7.74328125 11.28632812 7.2890625 10.62890625 C6.07839147 8.86259072 6.07839147 8.86259072 4 8 C2.25160484 5.34243936 1.00872518 3.02617555 0 0 Z " fill="#25465E" transform="translate(1058,1000)"/>
<path d="M0 0 C2.74515677 2.38333095 3.89080018 4.68909319 5.1875 8.0625 C5.53167969 8.94035156 5.87585937 9.81820313 6.23046875 10.72265625 C7 13 7 13 7 15 C6.34 15 5.68 15 5 15 C4.16013916 13.06532058 3.32831973 11.12714871 2.5 9.1875 C2.0359375 8.10855469 1.571875 7.02960938 1.09375 5.91796875 C0 3 0 3 0 0 Z " fill="#315068" transform="translate(1534,1118)"/>
<path d="M0 0 C0.66 0.33 1.32 0.66 2 1 C-1.3 4.96 -4.6 8.92 -8 13 C-8.33 12.34 -8.66 11.68 -9 11 C-7.87672229 9.54033966 -6.75131706 8.08231636 -5.625 6.625 C-4.99851562 5.81289062 -4.37203125 5.00078125 -3.7265625 4.1640625 C-2 2 -2 2 0 0 Z " fill="#DFEDF2" transform="translate(553,1111)"/>
<path d="M0 0 C0.66 0 1.32 0 2 0 C0.37621488 4.72373854 -2.10993018 8.94181834 -5 13 C-5.33 13 -5.66 13 -6 13 C-6.33314203 8.86469356 -5.68044053 6.93376536 -3.125 3.6875 C-2.59132813 2.99011719 -2.05765625 2.29273438 -1.5078125 1.57421875 C-0.76144531 0.79498047 -0.76144531 0.79498047 0 0 Z " fill="#254661" transform="translate(548,1113)"/>
<path d="M0 0 C0.33 0.99 0.66 1.98 1 3 C-0.21484375 4.82421875 -0.21484375 4.82421875 -1.9375 6.6875 C-2.50339844 7.31011719 -3.06929688 7.93273438 -3.65234375 8.57421875 C-4.09707031 9.04472656 -4.54179687 9.51523438 -5 10 C-5.99 9.67 -6.98 9.34 -8 9 C-5.36 6.03 -2.72 3.06 0 0 Z " fill="#244762" transform="translate(401,1210)"/>
<path d="M0 0 C5.01113235 1.4317521 6.94469549 3.98445693 10 8 C9.67 8.66 9.34 9.32 9 10 C7.49410612 8.71520959 5.99542625 7.42195918 4.5 6.125 C3.6646875 5.40570312 2.829375 4.68640625 1.96875 3.9453125 C1.3190625 3.30335937 0.669375 2.66140625 0 2 C0 1.34 0 0.68 0 0 Z " fill="#284965" transform="translate(862,1381)"/>
<path d="M0 0 C-0.33 0.66 -0.66 1.32 -1 2 C-2.92578125 2.484375 -2.92578125 2.484375 -5.3125 2.75 C-6.48232422 2.89695312 -6.48232422 2.89695312 -7.67578125 3.046875 C-10.30133568 2.99392264 -11.76473757 2.32990442 -14 1 C-9.32798795 -0.20568053 -4.78503708 -0.09382426 0 0 Z " fill="#6F8BA5" transform="translate(657,1075)"/>
<path d="M0 0 C-1.42859407 1.03325986 -2.86822383 2.05127634 -4.3125 3.0625 C-5.51326172 3.91521484 -5.51326172 3.91521484 -6.73828125 4.78515625 C-7.48464844 5.18605469 -8.23101563 5.58695313 -9 6 C-9.99 5.67 -10.98 5.34 -12 5 C-10.7410501 2.4821002 -9.60942883 2.07291536 -7.125 0.8125 C-6.42632813 0.44769531 -5.72765625 0.08289063 -5.0078125 -0.29296875 C-3 -1 -3 -1 0 0 Z " fill="#2A4A65" transform="translate(572,864)"/>
<path d="M0 0 C0.33 0 0.66 0 1 0 C0.46148032 5.27749285 -0.77343836 9.25645564 -3 14 C-3.66 14 -4.32 14 -5 14 C-3.45730076 9.27934033 -1.92205381 4.58335908 0 0 Z " fill="#2C4D66" transform="translate(1373,1012)"/>
<path d="M0 0 C0.33 0.66 0.66 1.32 1 2 C0.09373216 3.2989839 -0.82549537 4.58893167 -1.75 5.875 C-2.51570313 6.95394531 -2.51570313 6.95394531 -3.296875 8.0546875 C-5.07503547 10.08570565 -6.52701607 10.97855012 -9 12 C-6 8 -3 4 0 0 Z " fill="#2B4C66" transform="translate(392,1220)"/>
<path d="M0 0 C0.33 0.66 0.66 1.32 1 2 C-0.61000397 5.13950774 -2.38499232 7.63404067 -5 10 C-5.99 9.67 -6.98 9.34 -8 9 C-5.36 6.03 -2.72 3.06 0 0 Z " fill="#2B4D67" transform="translate(460,1140)"/>
<path d="M0 0 C0.33 0.99 0.66 1.98 1 3 C-0.4117783 3.53394179 -1.82970244 4.05165104 -3.25 4.5625 C-4.03890625 4.85253906 -4.8278125 5.14257812 -5.640625 5.44140625 C-8 6 -8 6 -12 5 C-8.04 3.35 -4.08 1.7 0 0 Z " fill="#93A9BB" transform="translate(657,1077)"/>
<path d="M0 0 C0.66 0.33 1.32 0.66 2 1 C1.75 2.875 1.75 2.875 1 5 C-0.8125 6.125 -0.8125 6.125 -3 7 C-4.33673704 7.65981536 -5.67059133 8.32554109 -7 9 C-6.02180976 7.68677212 -5.0424189 6.37443848 -4.0625 5.0625 C-3.51722656 4.33160156 -2.97195313 3.60070312 -2.41015625 2.84765625 C-1 1 -1 1 0 0 Z " fill="#2D495F" transform="translate(617,954)"/>
<path d="M0 0 C0.99 0 1.98 0 3 0 C1.61811547 3.21043882 0.07578097 5.04936365 -2.625 7.25 C-3.57246094 8.03117187 -3.57246094 8.03117187 -4.5390625 8.828125 C-5.02117188 9.21484375 -5.50328125 9.6015625 -6 10 C-5.34 8.35 -4.68 6.7 -4 5 C-3.34 5 -2.68 5 -2 5 C-2 4.34 -2 3.68 -2 3 C-1.34 3 -0.68 3 0 3 C0 2.01 0 1.02 0 0 Z " fill="#1D405F" transform="translate(582,1076)"/>
<path d="M0 0 C0.33 0 0.66 0 1 0 C0.88541307 1.43836751 0.75790884 2.87570966 0.625 4.3125 C0.55539062 5.11300781 0.48578125 5.91351562 0.4140625 6.73828125 C0 9 0 9 -2 12 C-2.66 12 -3.32 12 -4 12 C-2.66666667 8 -1.33333333 4 0 0 Z " fill="#2A4D65" transform="translate(1327,1122)"/>
<path d="M0 0 C0.66 0.99 1.32 1.98 2 3 C0.35 4.65 -1.3 6.3 -3 8 C-3.99 7.67 -4.98 7.34 -6 7 C-4.02 4.69 -2.04 2.38 0 0 Z " fill="#2D506B" transform="translate(503,1089)"/>
<path d="M0 0 C2.96404505 2.80804268 5.44499019 5.18315774 7 9 C6.01 9.495 6.01 9.495 5 10 C4.938125 9.38125 4.87625 8.7625 4.8125 8.125 C4.171081 5.72238859 4.171081 5.72238859 1.4375 4.75 C0.633125 4.5025 -0.17125 4.255 -1 4 C-0.67 2.68 -0.34 1.36 0 0 Z " fill="#D2E3ED" transform="translate(664,1085)"/>
<path d="M0 0 C-0.99 0.33 -1.98 0.66 -3 1 C-3.66 0.67 -4.32 0.34 -5 0 C-5.33 0.66 -5.66 1.32 -6 2 C-7.32 0.68 -8.64 -0.64 -10 -2 C-5.82412255 -3.39195915 -3.86525224 -1.82323219 0 0 Z " fill="#5B7A94" transform="translate(622,1070)"/>
<path d="M0 0 C2.31 0.33 4.62 0.66 7 1 C7 1.66 7 2.32 7 3 C8.32 3.33 9.64 3.66 11 4 C8.83032311 4.95465783 7.43671207 5.14401212 5.17578125 4.3984375 C3.4315257 3.64129615 1.71372869 2.82390802 0 2 C0 1.34 0 0.68 0 0 Z " fill="#50718C" transform="translate(616,1066)"/>
<path d="M0 0 C0.66 0.33 1.32 0.66 2 1 C-1.44615385 6.78461538 -1.44615385 6.78461538 -4.25 7.875 C-4.8275 7.91625 -5.405 7.9575 -6 8 C-2.25 2.25 -2.25 2.25 0 0 Z " fill="#2C4E6B" transform="translate(528,1060)"/>
<path d="M0 0 C0.66 0 1.32 0 2 0 C0.44499019 3.81684226 -2.03595495 6.19195732 -5 9 C-5.66 8.67 -6.32 8.34 -7 8 C-5.88200014 6.66079162 -4.75538103 5.32877444 -3.625 4 C-2.68527344 2.88625 -2.68527344 2.88625 -1.7265625 1.75 C-1.15679688 1.1725 -0.58703125 0.595 0 0 Z " fill="#254862" transform="translate(544,1041)"/>
<path d="M0 0 C0.66 0.33 1.32 0.66 2 1 C-2.455 3.97 -2.455 3.97 -7 7 C-7.66 6.34 -8.32 5.68 -9 5 C-3.375 1.125 -3.375 1.125 0 0 Z " fill="#26455F" transform="translate(462,928)"/>
<path d="M0 0 C-4.95 2.97 -4.95 2.97 -10 6 C-10.66 5.34 -11.32 4.68 -12 4 C-11.01 4 -10.02 4 -9 4 C-9 3.34 -9 2.68 -9 2 C-3.375 -1.125 -3.375 -1.125 0 0 Z " fill="#294A64" transform="translate(534,887)"/>
<path d="M0 0 C0.66 0.33 1.32 0.66 2 1 C-0.64 3.97 -3.28 6.94 -6 10 C-6.66 9.67 -7.32 9.34 -8 9 C-5.36 6.03 -2.72 3.06 0 0 Z " fill="#325369" transform="translate(512,1079)"/>
<path d="M0 0 C0.66 0.66 1.32 1.32 2 2 C0.68 5.3 -0.64 8.6 -2 12 C-2.33 12 -2.66 12 -3 12 C-2.14285714 3.42857143 -2.14285714 3.42857143 0 0 Z " fill="#22435E" transform="translate(1412,1020)"/>
<path d="M0 0 C1.99097846 2.98646769 2.94124926 5.59687262 4 9 C1.69 8.67 -0.62 8.34 -3 8 C-2.2575 7.4121875 -2.2575 7.4121875 -1.5 6.8125 C0.45593143 4.44908285 0.24207973 2.98564997 0 0 Z " fill="#D3E6ED" transform="translate(689,1019)"/>
<path d="M0 0 C0.66 0 1.32 0 2 0 C3.2890625 1.75 3.2890625 1.75 4.625 4 C5.07101562 4.7425 5.51703125 5.485 5.9765625 6.25 C6.31429688 6.8275 6.65203125 7.405 7 8 C5.68 8 4.36 8 3 8 C0 2.25 0 2.25 0 0 Z " fill="#274962" transform="translate(1027,959)"/>
<path d="M0 0 C1.65 0 3.3 0 5 0 C2.45543849 2.96865509 -0.48994665 4.3619751 -4 6 C-4.33 5.34 -4.66 4.68 -5 4 C-4.0409375 3.8453125 -4.0409375 3.8453125 -3.0625 3.6875 C-2.381875 3.460625 -1.70125 3.23375 -1 3 C-0.67 2.01 -0.34 1.02 0 0 Z " fill="#244763" transform="translate(552,872)"/>
<path d="M0 0 C2.3129482 2.3129482 2.49580975 3.47904875 3.125 6.625 C3.29257812 7.44226563 3.46015625 8.25953125 3.6328125 9.1015625 C3.81457031 10.04128906 3.81457031 10.04128906 4 11 C3.34 11 2.68 11 2 11 C1.01 7.7 0.02 4.4 -1 1 C-0.67 0.67 -0.34 0.34 0 0 Z " fill="#1C3F59" transform="translate(634,839)"/>
<path d="M0 0 C3.33557632 2.9905167 5.15083921 5.93184627 7 10 C6.01 10.495 6.01 10.495 5 11 C4.15841464 9.73461631 3.32700252 8.46246221 2.5 7.1875 C1.80390625 6.12595703 1.80390625 6.12595703 1.09375 5.04296875 C0 3 0 3 0 0 Z " fill="#2A4A64" transform="translate(780,1258)"/>
<path d="M0 0 C0.598125 0.763125 1.19625 1.52625 1.8125 2.3125 C3.8143414 4.93222548 3.8143414 4.93222548 5.8125 6.5625 C6.204375 7.036875 6.59625 7.51125 7 8 C6.57421875 10.08984375 6.57421875 10.08984375 6 12 C4.99157547 10.56839732 3.99352109 9.12948547 3 7.6875 C2.1646875 6.48673828 2.1646875 6.48673828 1.3125 5.26171875 C0 3 0 3 0 0 Z " fill="#244560" transform="translate(732,1184)"/>
<path d="M0 0 C1.33895632 1.66215268 2.67130142 3.32963607 4 5 C4.598125 5.70125 5.19625 6.4025 5.8125 7.125 C6.204375 7.74375 6.59625 8.3625 7 9 C6.67 9.99 6.34 10.98 6 12 C4.99157547 10.56839732 3.99352109 9.12948547 3 7.6875 C2.1646875 6.48673828 2.1646875 6.48673828 1.3125 5.26171875 C0 3 0 3 0 0 Z " fill="#274661" transform="translate(698,1132)"/>
<path d="M0 0 C3.73884332 2.65654657 5.64978174 4.58110387 7 9 C6.01 9.495 6.01 9.495 5 10 C3.02 7.03 1.04 4.06 -1 1 C-0.67 0.67 -0.34 0.34 0 0 Z " fill="#294964" transform="translate(1039,1041)"/>
<path d="M0 0 C0.33 0.99 0.66 1.98 1 3 C-0.98 4.98 -2.96 6.96 -5 9 C-5.66 8.67 -6.32 8.34 -7 8 C-4.69 5.36 -2.38 2.72 0 0 Z " fill="#32536B" transform="translate(580,998)"/>
<path d="M0 0 C-2.97 1.65 -5.94 3.3 -9 5 C-9 4.01 -9 3.02 -9 2 C-3.375 -1.125 -3.375 -1.125 0 0 Z " fill="#2D4E66" transform="translate(504,905)"/>
<path d="M0 0 C0.99 0.33 1.98 0.66 3 1 C2.04882866 2.1725131 1.08882991 3.33787015 0.125 4.5 C-0.40867187 5.1496875 -0.94234375 5.799375 -1.4921875 6.46875 C-1.98976563 6.9740625 -2.48734375 7.479375 -3 8 C-3.66 8 -4.32 8 -5 8 C-3.8141763 4.62496331 -2.72426311 2.35277269 0 0 Z " fill="#D9E8ED" transform="translate(898,645)"/>
<path d="M0 0 C0.82810826 3.31243305 1.09278428 5.65976579 1 9 C-0.32 9 -1.64 9 -3 9 C-2.01 6.03 -1.02 3.06 0 0 Z " fill="#DDEEF3" transform="translate(1397,1062)"/>
<path d="M0 0 C0.66 0.66 1.32 1.32 2 2 C0.02 3.98 -1.96 5.96 -4 8 C-4.66 7.67 -5.32 7.34 -6 7 C-4.02 4.69 -2.04 2.38 0 0 Z " fill="#DEEBF0" transform="translate(417,1066)"/>
<path d="M0 0 C1.32 0.33 2.64 0.66 4 1 C1.03 2.65 -1.94 4.3 -5 6 C-5.33 5.34 -5.66 4.68 -6 4 C-5.01 4 -4.02 4 -3 4 C-3 3.34 -3 2.68 -3 2 C-2.01 1.34 -1.02 0.68 0 0 Z " fill="#2C4B64" transform="translate(510,898)"/>
<path d="M0 0 C0.33 0 0.66 0 1 0 C1.17942163 3.94727588 1.09350689 6.5980513 -1 10 C-1.66 10 -2.32 10 -3 10 C-2.01 6.7 -1.02 3.4 0 0 Z " fill="#2A4B66" transform="translate(1357,1050)"/>
<path d="M0 0 C2.64752004 2.57784846 4.94432065 4.91648098 7 8 C6.01 8 5.02 8 4 8 C0 2.74285714 0 2.74285714 0 0 Z " fill="#22435C" transform="translate(1015,1010)"/>
<path d="M0 0 C0.66 0.33 1.32 0.66 2 1 C1.34 1.66 0.68 2.32 0 3 C0.33 3.66 0.66 4.32 1 5 C-1.31 5 -3.62 5 -6 5 C-4.06745228 2.9754262 -2.36841312 1.57894208 0 0 Z " fill="#E4F5F8" transform="translate(420,955)"/>
<path d="M0 0 C1.32 0.33 2.64 0.66 4 1 C1.03 2.65 -1.94 4.3 -5 6 C-5 5.34 -5 4.68 -5 4 C-4.34 4 -3.68 4 -3 4 C-3 3.34 -3 2.68 -3 2 C-2.01 1.34 -1.02 0.68 0 0 Z " fill="#2E4D67" transform="translate(578,857)"/>
<path d="M0 0 C2.89932357 2.39509338 3.50168276 4.31245243 4 8 C3.01 7.67 2.02 7.34 1 7 C0.67 4.69 0.34 2.38 0 0 Z " fill="#2E4F67" transform="translate(1541,1135)"/>
</svg>
